# xmcd
#
# Track frame offsets: 
#        175
#        19457
#        39555
#        59775
#        82967
#        99827
#        120180
#        137457
#        160677
#        177750
#        193032
#        208137
#        232202
#
# Disc length: 3324 seconds
#
# Revision: 4
# Processed by: cddbd v1.5.2PL0 Copyright (c) Steve Scherf et al.
# Submitted via: ExactAudioCopy v1.1
#
DISCID=ab0cfa0d
DTITLE=Various Artist - Welcome to Music City USA
DYEAR=1994
DGENRE=Country
TTITLE0=Wynonna Judd - No One Else On Earth
TTITLE1=Hal Ketchum - Past The Point Of Rescue
TTITLE2=Delbert McClinton - Everytime I Roll The Dice
TTITLE3=Sawyer Brown - Boys And Me,The
TTITLE4=Boy Howdy - She'd Give Anything
TTITLE5=Hank Williams Jr. - All My Rowdy Friends Are Coming Over Tonig
TTITLE5=ht
TTITLE6=Wynonna Judd - Is It Over Yet
TTITLE7=Hal Ketchum - Hearts Are Gonna Roll
TTITLE8=Delbert McClinton - Tell Me About It
TTITLE9=Sawyer Brown - All These Years
TTITLE10=Desert Rose Band - What About Love
TTITLE11=Six Shooter - Under My Skin
TTITLE12=Junior Brown - My Wife Thinks You're Dead
EXTD=Curb Hit Label \n1994\nMPHCD 5
EXTT0=
EXTT1=
EXTT2=
EXTT3=
EXTT4=
EXTT5=
EXTT6=
EXTT7=
EXTT8=
EXTT9=
EXTT10=
EXTT11=
EXTT12=
PLAYORDER=
